<svg width="16" height="16" viewBox="0 0 16 16" fill="none" xmlns="http://www.w3.org/2000/svg">
<path fill-rule="evenodd" clip-rule="evenodd" d="M4.48724 3.9474L4.94793 3.78482C5.48611 3.5949 5.86904 3.08237 5.86904 2.48339C5.86904 1.72142 5.25038 1.10373 4.48724 1.10373C3.72409 1.10373 3.10544 1.72142 3.10544 2.48339C3.10544 3.08237 3.48836 3.5949 4.02654 3.78482L4.48724 3.9474ZM7.78417 12.0558L7.33612 12.2505C6.84486 12.464 6.50488 12.9519 6.50488 13.5166C6.50488 14.2786 7.12353 14.8963 7.88668 14.8963C8.64983 14.8963 9.26848 14.2786 9.26848 13.5166C9.26848 12.8843 8.84146 12.3487 8.25759 12.1869L7.78417 12.0558ZM11.2862 3.9474L11.7469 3.78479C12.285 3.59484 12.6679 3.08234 12.6679 2.48339C12.6679 1.72142 12.0493 1.10373 11.2861 1.10373C10.523 1.10373 9.90432 1.72142 9.90432 2.48339C9.90432 3.08241 10.2873 3.59496 10.8255 3.78486L11.2862 3.9474ZM5.31632 4.82546V5.85653C5.31632 6.32836 5.55782 6.76748 5.95657 7.02069L7.77428 8.17495L9.68991 7.22531C10.1599 6.9923 10.4572 6.51356 10.4572 5.98959V4.82552C9.49109 4.48465 8.79888 3.56473 8.79888 2.48339C8.79888 1.11185 9.91246 0 11.2861 0C12.6598 0 13.7734 1.11185 13.7734 2.48339C13.7734 3.5646 13.0813 4.48444 12.1154 4.8254V5.98959C12.1154 7.14232 11.4614 8.19556 10.4273 8.70819L8.55311 9.63729V11.1234C9.60316 11.4142 10.3739 12.3756 10.3739 13.5166C10.3739 14.8881 9.26034 16 7.88668 16C6.51302 16 5.39944 14.8881 5.39944 13.5166C5.39944 12.497 6.01481 11.621 6.89495 11.2385V9.57863L5.06671 8.41768C4.18945 7.86061 3.65816 6.89457 3.65816 5.85653V4.82546C2.69212 4.48455 2 3.56467 2 2.48339C2 1.11185 3.11357 0 4.48724 0C5.8609 0 6.97448 1.11185 6.97448 2.48339C6.97448 3.56467 6.28235 4.48455 5.31632 4.82546Z" fill="#999999"/>
</svg>
