<svg width="260" height="260" viewBox="0 0 260 260" fill="none" xmlns="http://www.w3.org/2000/svg">
<g clip-path="url(#clip0)">
<path d="M260 260H0V0H206.939L260 43.3333V260Z" fill="#6BB1C7"/>
<path d="M258.7 42.9H205.4V0L258.7 42.9Z" fill="#64AABF"/>
<path d="M260 178.1C233.469 208.915 99.9681 250.195 0 251.904V261.3H260V178.1Z" fill="#64AABF"/>
<path d="M32.5 199.062H65V231.562H32.5V199.062Z" fill="#F3F3F3"/>
<path d="M32.5 146.25H65V178.75H32.5V146.25Z" fill="#F3F3F3"/>
<path d="M32.5 93.4375H65V125.938H32.5V93.4375Z" fill="#F3F3F3"/>
<path d="M32.5 40.625H65V73.125H32.5V40.625Z" fill="#F3F3F3"/>
<path d="M48.75 66.6821L37.7527 55.6848L43.4973 49.9402L48.75 55.1929L70.2527 33.6902L75.9973 39.4348L48.75 66.6821Z" fill="#82C7B2"/>
<path d="M48.75 119.495L37.7527 108.497L43.4973 102.753L48.75 108.005L70.2527 86.5027L75.9973 92.2473L48.75 119.495Z" fill="#82C7B2"/>
<g clip-path="url(#clip1)">
<path d="M82.9894 148.917L78.5211 154.006C76.5942 156.201 76.3016 159.387 77.7966 161.896C79.2916 164.405 82.2336 165.664 85.0808 165.014L91.6832 163.507L82.9894 148.917Z" fill="#495153"/>
<path d="M208.109 61.416L228.169 95.0801L219.192 100.429L199.132 66.7653L208.109 61.416Z" fill="#E4FBEF"/>
<path d="M224.493 88.908L228.171 95.0797L219.194 100.429L215.516 94.2573L224.493 88.908Z" fill="#D3EFFB"/>
<path d="M115.777 161.679C115.51 161.76 115.239 161.831 114.969 161.89C114.392 162.023 113.804 162.108 113.21 162.145C113.197 162.148 113.188 162.149 113.177 162.148L91.6854 163.506L82.9911 148.916L94.4133 130.661C94.4189 130.65 94.424 130.643 94.4322 130.633C94.747 130.128 95.1023 129.651 95.4944 129.204C95.6751 128.995 95.8654 128.794 96.0635 128.597L115.777 161.679Z" fill="#F1D59D"/>
<path d="M228.176 95.0996L208.113 61.4304L218.775 55.0772C223.424 52.3069 229.438 53.8298 232.208 58.4787L242.24 75.3132C245.01 79.9621 243.487 85.9763 238.838 88.7463L228.176 95.0996Z" fill="#EBA3C4"/>
<path d="M242.24 75.3128L238.562 69.14C241.332 73.7889 239.809 79.8031 235.16 82.5731L224.498 88.9264L228.177 95.0991L238.839 88.7458C243.487 85.9758 245.01 79.9616 242.24 75.3128V75.3128Z" fill="#EC82AF"/>
<path d="M205.821 78.0034L102.577 139.528L100.959 140.49C100.549 139.801 99.8247 139.297 98.9324 139.223L95.0226 138.897C93.2373 138.751 92.1271 136.888 92.846 135.245L95.4945 129.205C95.6752 128.995 95.8655 128.794 96.0636 128.598C96.7256 127.94 97.472 127.361 98.2795 126.88L199.136 66.7801L205.821 78.0034Z" fill="#FFE07D"/>
<path d="M219.199 100.449L118.343 160.548C117.535 161.029 116.67 161.41 115.777 161.679C115.51 161.76 115.239 161.831 114.969 161.89L108.399 161.346C106.612 161.196 105.502 159.333 106.223 157.693L107.797 154.1C108.156 153.279 108.058 152.403 107.648 151.714L109.265 150.752L212.51 89.2275L219.199 100.449Z" fill="#FFC250"/>
<path d="M205.822 78.0035L100.96 140.49C101.371 141.179 101.468 142.055 101.109 142.877L99.5337 146.469C98.8139 148.111 99.9237 149.974 101.71 150.122L105.619 150.447C106.513 150.521 107.237 151.024 107.648 151.713L212.51 89.2265L205.822 78.0035Z" fill="#FFD064"/>
</g>
</g>
<defs>
<clipPath id="clip0">
<rect width="260" height="260" fill="white"/>
</clipPath>
<clipPath id="clip1">
<rect width="143" height="143" fill="white" transform="translate(110.502 24.7) rotate(14.2097)"/>
</clipPath>
</defs>
</svg>
