<svg width="20" height="20" viewBox="0 0 20 20" fill="none" xmlns="http://www.w3.org/2000/svg">
<g clip-path="url(#clip0)">
<path d="M4.7743 0.781266L4.7743 17.3265L2.0468 14.5857C1.74243 14.2799 1.24778 14.2787 0.941961 14.5831C0.636101 14.8875 0.634969 15.3822 0.939305 15.688L5.0018 19.7702C5.00204 19.7704 5.00231 19.7706 5.00255 19.7709C5.30692 20.0759 5.80317 20.0769 6.10856 19.771C6.1088 19.7707 6.10907 19.7705 6.1093 19.7703L10.1718 15.6881C10.4761 15.3823 10.475 14.8876 10.1691 14.5832C9.86333 14.2788 9.36868 14.28 9.0643 14.5858L6.3368 17.3265L6.3368 0.781266C6.3368 0.349782 5.98704 1.62125e-05 5.55555 1.62125e-05C5.12407 1.62125e-05 4.7743 0.349782 4.7743 0.781266Z" fill="#6BB1C7"/>
<path d="M15.625 19.2188V2.67352L18.3525 5.4143C18.6569 5.72012 19.1515 5.72129 19.4573 5.41691C19.7632 5.11254 19.7643 4.61785 19.46 4.31203L15.3975 0.229843C15.3973 0.22957 15.397 0.229375 15.3968 0.22914C15.0924 -0.0758989 14.5961 -0.0768755 14.2907 0.229062C14.2905 0.229336 14.2902 0.229531 14.29 0.229765L10.2275 4.31195C9.92321 4.61773 9.92426 5.11242 10.2302 5.41684C10.536 5.72121 11.0306 5.72004 11.335 5.41422L14.0625 2.67352V19.2188C14.0625 19.6502 14.4123 20 14.8438 20C15.2752 20 15.625 19.6502 15.625 19.2188Z" fill="#6BB1C7"/>
</g>
<defs>
<clipPath id="clip0">
<rect width="20" height="20" fill="white" transform="translate(0 20) rotate(-90)"/>
</clipPath>
</defs>
</svg>
