<svg width="30" height="30" viewBox="0 0 30 30" fill="none" xmlns="http://www.w3.org/2000/svg">
<path d="M27.9879 7.65807C26.6465 5.30219 24.8271 3.43704 22.529 2.0622C20.2307 0.687282 17.7215 0 14.9999 0C12.2785 0 9.76858 0.687492 7.47069 2.0622C5.17246 3.43697 3.35308 5.30219 2.01174 7.65807C0.670603 10.0139 0 12.5864 0 15.3757C0 18.7262 0.953606 21.739 2.8613 24.415C4.76878 27.0912 7.23297 28.9431 10.2537 29.9707C10.6053 30.0376 10.8656 29.9906 11.0348 29.8308C11.2041 29.6707 11.2887 29.4703 11.2887 29.2304C11.2887 29.1903 11.2853 28.8301 11.2788 28.1493C11.2721 27.4684 11.269 26.8745 11.269 26.3677L10.8197 26.4474C10.5333 26.5011 10.172 26.5239 9.73574 26.5175C9.29971 26.5112 8.84705 26.4644 8.37839 26.3773C7.90952 26.291 7.47342 26.0908 7.06975 25.7771C6.66628 25.4635 6.37986 25.0529 6.21055 24.546L6.01524 24.0853C5.88506 23.7786 5.68011 23.4379 5.40012 23.0644C5.12012 22.6906 4.83698 22.4371 4.55056 22.3037L4.41381 22.2033C4.32269 22.1366 4.23814 22.0562 4.15995 21.9629C4.08183 21.8695 4.02334 21.7761 3.98428 21.6826C3.94515 21.589 3.97758 21.5122 4.0819 21.452C4.18622 21.3917 4.37475 21.3625 4.64832 21.3625L5.03879 21.4223C5.29922 21.4758 5.62135 21.6356 6.0056 21.9027C6.38964 22.1696 6.70534 22.5166 6.95277 22.9435C7.2524 23.4909 7.61339 23.908 8.03676 24.195C8.4598 24.482 8.88632 24.6253 9.31592 24.6253C9.74552 24.6253 10.1166 24.5919 10.4292 24.5255C10.7415 24.4587 11.0345 24.3584 11.308 24.225C11.4252 23.3304 11.7443 22.6431 12.2649 22.1627C11.5228 22.0827 10.8556 21.9623 10.263 21.8022C9.67075 21.6419 9.05871 21.3818 8.4273 21.021C7.79556 20.6608 7.27148 20.2135 6.85495 19.6799C6.43834 19.1459 6.09644 18.445 5.82972 17.5776C5.56286 16.7099 5.4294 15.709 5.4294 14.5745C5.4294 12.9592 5.94382 11.5846 6.97247 10.45C6.49061 9.23564 6.5361 7.87426 7.10908 6.36604C7.48669 6.24578 8.04668 6.33603 8.78877 6.63622C9.531 6.93656 10.0744 7.19385 10.4196 7.40716C10.7648 7.62041 11.0414 7.80112 11.2497 7.94768C12.4609 7.60078 13.7108 7.42729 14.9997 7.42729C16.2887 7.42729 17.5388 7.60078 18.7501 7.94768L19.4922 7.4674C19.9997 7.14694 20.599 6.85326 21.2887 6.5863C21.9788 6.31948 22.5065 6.24599 22.8713 6.36625C23.457 7.87454 23.5092 9.23585 23.0272 10.4503C24.0558 11.5849 24.5704 12.9598 24.5704 14.5747C24.5704 15.7092 24.4365 16.7133 24.17 17.5877C23.9032 18.4622 23.5584 19.1624 23.1353 19.6899C22.7118 20.2173 22.1844 20.6611 21.553 21.0213C20.9215 21.3817 20.3092 21.6419 19.7169 21.8022C19.1244 21.9625 18.4572 22.0829 17.7151 22.163C18.3919 22.7634 18.7304 23.7111 18.7304 25.0058V29.2298C18.7304 29.4698 18.8118 29.6701 18.9748 29.8302C19.1375 29.99 19.3945 30.0371 19.7461 29.9701C22.7672 28.9426 25.2314 27.0907 27.1388 24.4145C29.0461 21.7385 30 18.7256 30 15.3751C29.9993 12.5862 29.3284 10.0139 27.9879 7.65807Z" fill="#999999"/>
</svg>
