<svg width="16" height="16" viewBox="0 0 16 16" fill="none" xmlns="http://www.w3.org/2000/svg">
<path d="M13.5268 2.27362C10.388 -0.757876 5.41191 -0.757876 2.27315 2.27362C-0.834469 5.49119 -0.745342 10.6187 2.47222 13.7263C5.61098 16.7578 10.5871 16.7578 13.7259 13.7263C16.8335 10.5088 16.7444 5.38124 13.5268 2.27362Z" fill="#999999"/>
<g clip-path="url(#clip0)">
<path d="M12.7278 10.339L11.3323 8.94346C10.8339 8.44506 9.98661 8.64444 9.78724 9.29234C9.63772 9.74092 9.13932 9.99013 8.69076 9.89043C7.69395 9.64122 6.34826 8.34538 6.09906 7.29873C5.94954 6.85015 6.24858 6.35174 6.69714 6.20224C7.34507 6.00288 7.54443 5.15559 7.04603 4.65719L5.6505 3.26166C5.25177 2.91278 4.65369 2.91278 4.30481 3.26166L3.35784 4.20863C2.41087 5.20543 3.45752 7.84697 5.80002 10.1895C8.14251 12.532 10.7841 13.6285 11.7809 12.6316L12.7278 11.6847C13.0767 11.286 13.0767 10.6879 12.7278 10.339Z" fill="white"/>
</g>
<defs>
<clipPath id="clip0">
<rect width="10" height="10" fill="white" transform="translate(3 3)"/>
</clipPath>
</defs>
</svg>
