<svg width="30" height="30" viewBox="0 0 30 30" fill="none" xmlns="http://www.w3.org/2000/svg">
<path d="M15 0C6.71601 0 0 6.7157 0 15C0 23.2843 6.71601 30 15 30C23.284 30 30 23.2843 30 15C30 6.7157 23.284 0 15 0ZM22.6088 17.8723C23.3079 18.5552 24.0476 19.1978 24.6752 19.9513C24.9532 20.2846 25.2153 20.6292 25.4148 21.0169C25.6996 21.5696 25.4425 22.1757 24.9477 22.2086L21.8747 22.208C21.081 22.2736 20.4494 21.9535 19.9169 21.4109C19.4919 20.9785 19.0975 20.5166 18.6881 20.0694C18.5208 19.8859 18.3447 19.7131 18.1347 19.5772C17.7158 19.3046 17.3518 19.3881 17.1118 19.8258C16.8672 20.2711 16.8114 20.7646 16.788 21.2602C16.7546 21.9848 16.5361 22.1742 15.809 22.2083C14.2554 22.281 12.7814 22.0453 11.4114 21.2621C10.2028 20.5712 9.26732 19.5962 8.45217 18.4923C6.86486 16.3402 5.64921 13.9783 4.55693 11.5485C4.3111 11.0013 4.49095 10.7085 5.09463 10.6972C6.0976 10.6778 7.10056 10.6803 8.10353 10.6962C8.51171 10.7027 8.78179 10.9362 8.93862 11.3214C9.48061 12.6549 10.1451 13.9237 10.9777 15.1003C11.1996 15.4137 11.4261 15.7261 11.7486 15.9474C12.1047 16.1917 12.376 16.111 12.5438 15.7135C12.6513 15.4609 12.6976 15.1909 12.7209 14.9202C12.8007 13.993 12.8102 13.0662 12.6721 12.1427C12.5862 11.5648 12.2612 11.1916 11.6851 11.0823C11.3917 11.0268 11.4347 10.9181 11.5774 10.7506C11.8251 10.4608 12.0571 10.2816 12.5208 10.2816L15.9928 10.281C16.5401 10.3884 16.6628 10.6339 16.7371 11.1851L16.7402 15.0436C16.7337 15.2569 16.8473 15.8891 17.2303 16.0287C17.5372 16.13 17.7397 15.8839 17.9233 15.6896C18.7559 14.806 19.3492 13.7631 19.8804 12.6838C20.1149 12.2077 20.3171 11.7152 20.5136 11.2217C20.6596 10.8568 20.8868 10.6772 21.2986 10.6834L24.642 10.6873C24.7406 10.6873 24.8406 10.6883 24.9382 10.7051C25.5017 10.8015 25.6561 11.044 25.4817 11.5936C25.2074 12.4573 24.6743 13.1766 24.1531 13.8979C23.5946 14.6701 22.9989 15.4152 22.4458 16.1908C21.9376 16.8997 21.9778 17.2567 22.6088 17.8723Z" fill="#999999"/>
</svg>
